<?xml version="1.0" encoding="utf-8"?>
<!-- Generator: Adobe Illustrator 19.2.0, SVG Export Plug-In . SVG Version: 6.00 Build 0)  -->
<svg version="1.1" id="Layer_1" xmlns="http://www.w3.org/2000/svg" xmlns:xlink="http://www.w3.org/1999/xlink" x="0px" y="0px"
	 viewBox="0 0 30.3 48.7" style="enable-background:new 0 0 30.3 48.7;" xml:space="preserve">
<style type="text/css">
	.st0{fill:#934742;}
	.st1{fill:#FFFFFF;}
	.st2{font-family:'FontAwesome';}
	.st3{font-size:12px;}
</style>
<path class="st0" d="M30.3,14.8C30.3,6.6,23.5,0,15.1,0C6.8,0,0,6.6,0,14.8c0,1.5,0.2,2.9,0.7,4.3h0l0,0
	c0.7,1.5,14.5,29.6,14.5,29.6s13.8-28.1,14.5-29.6l0,0h0C30,17.8,30.3,16.3,30.3,14.8z M15.1,22.6c-3.7,0-6.7-3-6.7-6.7
	c0-3.7,3-6.7,6.7-6.7c3.7,0,6.7,3,6.7,6.7C21.8,19.6,18.8,22.6,15.1,22.6z"/>
<ellipse class="st1" cx="15.3" cy="14.8" rx="11.3" ry="11.4"/>
<text transform="matrix(1 0 0 1 8.8335 18.5)" class="st0 st2 st3"></text>
</svg>
